<svg aria-hidden="true" style="position: absolute; width: 0; height: 0; overflow: hidden;" version="1.1" xmlns="http://www.w3.org/2000/svg" xmlns:xlink="http://www.w3.org/1999/xlink">
<defs>
<symbol id="icon-advantages_svg1" viewBox="0 0 38 32">
<path fill="#fff" style="fill: var(--color1, #fff)" d="M2.318 11.401c0.302 0.373 0.705 0.581 1.125 0.58 0.216-0.002 0.429-0.060 0.626-0.171s0.376-0.272 0.524-0.473l0.718-0.947c0.268 0.079 0.547 0.068 0.811-0.031s0.503-0.284 0.696-0.536l1.546-2.037 1.085-1.405-0.869-0.052-2.209 2.913c-0.129 0.165-0.292 0.279-0.47 0.329s-0.363 0.034-0.534-0.046c-0.060-0.030-0.126-0.036-0.189-0.019s-0.121 0.057-0.167 0.116l-0.854 1.134c-0.089 0.115-0.194 0.206-0.311 0.269s-0.241 0.094-0.367 0.094c-0.126 0-0.251-0.032-0.367-0.094s-0.222-0.154-0.311-0.269c-0.089-0.106-0.159-0.236-0.206-0.38-0.026-0.077-0.068-0.142-0.123-0.188s-0.118-0.070-0.183-0.070h-0.080c-0.167-0-0.331-0.051-0.479-0.149s-0.277-0.239-0.374-0.412c-0.044-0.071-0.082-0.149-0.11-0.232-0.267-0.073-0.522-0.206-0.753-0.393 0.030 0.522 0.204 1.013 0.49 1.386s0.666 0.604 1.072 0.651c0.075 0.157 0.164 0.302 0.266 0.432z"></path>
<path fill="#fff" style="fill: var(--color1, #fff)" d="M12.877 0.012h-0.326c-0.211-0.016-0.422-0.016-0.633 0-1.28 0.135-5.207 0.999-5.373 1.031-0.166 0.071-0.884 0.503-5.594 3.326-0.348 0.225-0.626 0.594-0.79 1.048s-0.205 0.965-0.115 1.451c0.090 0.486 0.305 0.92 0.61 1.23s0.683 0.479 1.073 0.48c0.265 0.001 0.527-0.079 0.763-0.232l4.484-2.862 4.926 0.058 1.898 0.87-3.515 0.645c-0.434 0.074-0.83 0.356-1.109 0.789s-0.419 0.987-0.393 1.548c0.026 0.561 0.217 1.089 0.534 1.477s0.737 0.607 1.174 0.614h0.206l6.437-1.115c0.231-0.033 0.465-0.018 0.693 0.045l2.134 0.599c0.851 0.238 1.729 0.277 2.591 0.116l0.628-0.116v-0.857l-0.728 0.135c-0.773 0.144-1.56 0.111-2.325-0.097l-2.129-0.599c-0.302-0.084-0.612-0.104-0.919-0.058l-6.442 1.121c-0.14 0.019-0.281 0.002-0.415-0.050s-0.26-0.137-0.368-0.25c-0.109-0.114-0.199-0.254-0.265-0.413s-0.108-0.333-0.121-0.512c-0.016-0.177-0.005-0.357 0.034-0.529s0.103-0.332 0.19-0.472c0.087-0.14 0.194-0.256 0.316-0.342s0.256-0.14 0.394-0.159l4.83-0.909c0.073-0.013 0.14-0.056 0.191-0.124s0.083-0.156 0.090-0.25c0.008-0.094-0.009-0.19-0.048-0.27s-0.098-0.142-0.168-0.175l-3.204-1.502c-0.037-0.006-0.074-0.006-0.11 0l-5.061-0.058c-0.052 0.001-0.104 0.016-0.151 0.045l-4.554 2.907c-0.256 0.155-0.549 0.175-0.816 0.054s-0.486-0.372-0.61-0.699c-0.123-0.32-0.143-0.689-0.055-1.028s0.275-0.62 0.522-0.783l5.458-3.261c0.427-0.090 4.087-0.889 5.277-1.012 0.182-0.016 0.365-0.016 0.547 0h0.341c1.18 0.032 5.287 0.251 8.506 1.689h0.055l1.808 0.4v-0.864l-1.677-0.367c-3.213-1.424-7.14-1.676-8.681-1.721l-0.015 0.006z"></path>
<path fill="#fff" style="fill: var(--color1, #fff)" d="M37.501 11.749h-9.4v-10.435h9.4v10.435zM37.832 0.463h-10.042c-0.088 0-0.172 0.045-0.234 0.125s-0.097 0.188-0.097 0.301v11.286c0 0.113 0.035 0.221 0.097 0.301s0.146 0.125 0.234 0.125h10.042c0.088-0.002 0.171-0.047 0.233-0.126s0.097-0.187 0.098-0.299v-11.286c-0.001-0.112-0.037-0.22-0.098-0.299s-0.145-0.125-0.233-0.126z"></path>
<path fill="#fff" style="fill: var(--color1, #fff)" d="M24.23 1.088c-0.087 0-0.169 0.044-0.231 0.123s-0.095 0.185-0.095 0.296l-0.050 10.035c-0.001 0.055 0.007 0.11 0.023 0.161s0.041 0.097 0.072 0.135c0.030 0.041 0.065 0.073 0.105 0.095s0.083 0.034 0.126 0.034h2.596v-0.851h-2.26l0.045-9.185h2.214v-0.825h-2.541l-0.005-0.019z"></path>
<path fill="#fff" style="fill: var(--color1, #fff)" d="M2.313 31.033c0.389-0.641 0.894-1.15 1.471-1.482 0.066-0.038 0.121-0.1 0.16-0.178s0.060-0.168 0.060-0.261v-1.289h14.827v1.289c-0 0.092 0.020 0.182 0.058 0.259s0.093 0.14 0.158 0.179c0.579 0.329 1.084 0.839 1.471 1.482h-18.207zM19.585 28.816v-1.47c-0.001-0.128-0.041-0.25-0.112-0.34s-0.165-0.142-0.265-0.143h-15.566c-0.099 0.002-0.195 0.053-0.265 0.143s-0.11 0.212-0.112 0.34v1.47c-0.537 0.361-1.803 1.36-1.803 2.701 0.001 0.128 0.041 0.25 0.112 0.34s0.165 0.142 0.265 0.143h19.181c0.102-0.005 0.199-0.061 0.269-0.156s0.109-0.222 0.108-0.353c0-1.289-1.26-2.314-1.798-2.675h-0.015z"></path>
<path fill="#fff" style="fill: var(--color1, #fff)" d="M11.376 13.798h0.085c0.296 0.002 0.583 0.13 0.816 0.363s0.4 0.559 0.474 0.926h-2.666c0.073-0.368 0.24-0.694 0.474-0.928s0.521-0.36 0.817-0.361zM13.178 16.029c0.102-0.005 0.199-0.061 0.269-0.156s0.109-0.222 0.108-0.353c0-0.353-0.054-0.702-0.159-1.029s-0.259-0.622-0.454-0.872c-0.194-0.25-0.425-0.448-0.679-0.583s-0.526-0.205-0.801-0.205h-0.085c-0.276 0.001-0.55 0.072-0.805 0.209s-0.486 0.337-0.681 0.589c-0.195 0.252-0.348 0.551-0.453 0.88s-0.157 0.681-0.155 1.035c0 0.128 0.040 0.251 0.11 0.342s0.166 0.142 0.266 0.142h3.52z"></path>
<path fill="#fff" style="fill: var(--color1, #fff)" d="M11.366 17.524h0.075c3.183 0 6.889 1.992 7.090 7.56h-14.23c0.206-5.524 3.891-7.535 7.065-7.56zM3.558 25.568c-0.001 0.064 0.009 0.127 0.027 0.186s0.046 0.113 0.082 0.158c0.035 0.045 0.077 0.081 0.123 0.105s0.095 0.036 0.145 0.035h14.998c0.1 0 0.196-0.051 0.266-0.141s0.11-0.214 0.11-0.342c0-6.652-4.233-9.023-7.853-9.023h-0.080c-3.891 0.032-7.818 2.836-7.818 9.023z"></path>
<path fill="#fff" style="fill: var(--color1, #fff)" d="M5.17 24.627h0.070c0.088 0.001 0.173-0.038 0.241-0.11s0.114-0.172 0.13-0.283c0.17-1 0.525-1.932 1.036-2.717s1.161-1.401 1.897-1.795c0.045-0.026 0.086-0.064 0.12-0.111s0.060-0.102 0.077-0.162c0.017-0.060 0.024-0.124 0.021-0.188s-0.015-0.126-0.037-0.184c-0.043-0.115-0.12-0.204-0.214-0.247s-0.197-0.038-0.288 0.015c-0.846 0.453-1.594 1.164-2.177 2.071s-0.986 1.984-1.172 3.137c-0.010 0.062-0.011 0.126-0.001 0.189s0.029 0.122 0.056 0.175 0.063 0.098 0.105 0.133c0.041 0.035 0.088 0.059 0.137 0.070v0.006z"></path>
<path fill="#fff" style="fill: var(--color1, #fff)" d="M18.119 28.681h-13.422c-0.1 0-0.196 0.051-0.266 0.141s-0.11 0.214-0.11 0.342 0.040 0.251 0.11 0.342c0.071 0.091 0.166 0.142 0.266 0.142h13.422c0.1 0 0.195-0.051 0.266-0.142s0.11-0.214 0.11-0.342-0.040-0.251-0.11-0.342c-0.071-0.091-0.166-0.141-0.266-0.141z"></path>
</symbol>
<symbol id="icon-advantages_svg2" viewBox="0 0 42 32">
<path fill="#fff" style="fill: var(--color1, #fff)" d="M7.689 1.451c0.457-0.254 0.961-0.401 1.477-0.431 0.139-0.016 0.279 0.014 0.4 0.086 0.038 0.139-0.319 0.816-1.395 1.38-0.455 0.253-0.957 0.398-1.47 0.425-0.139 0.016-0.279-0.014-0.4-0.086-0.038-0.139 0.313-0.809 1.389-1.373zM6.7 3.912c0.655-0.027 1.296-0.208 1.877-0.531 0.56-0.28 1.060-0.677 1.47-1.168 0.582-0.736 0.469-1.28 0.344-1.539-0.123-0.23-0.307-0.416-0.53-0.534s-0.474-0.163-0.721-0.129c-0.655 0.030-1.295 0.211-1.877 0.531-0.562 0.282-1.064 0.681-1.477 1.174-0.197 0.189-0.334 0.437-0.393 0.711s-0.038 0.561 0.061 0.821c0.123 0.23 0.307 0.416 0.53 0.534s0.474 0.163 0.721 0.129h-0.006z"></path>
<path fill="#fff" style="fill: var(--color1, #fff)" d="M9.091 4.416c2.036-1.078 4.282-1.637 6.557-1.632 2.672-0.009 5.297 0.75 7.595 2.198s4.181 3.529 5.452 6.022l-26.568 13.931c-1.557-3.712-1.702-7.917-0.404-11.739s3.937-6.965 7.368-8.773v-0.007zM1.688 26.262l28.276-14.814-0.213-0.444c-1.905-3.876-5.166-6.808-9.085-8.166s-8.183-1.035-11.88 0.901-6.531 5.329-7.897 9.453c-1.365 4.124-1.153 8.652 0.592 12.612l0.206 0.445v0.013z"></path>
<path fill="#fff" style="fill: var(--color1, #fff)" d="M3.096 23.847c0.056 0.002 0.112-0.009 0.163-0.033 0.061-0.022 0.117-0.057 0.164-0.103s0.085-0.102 0.111-0.164c0.026-0.062 0.039-0.13 0.039-0.198s-0.014-0.136-0.039-0.198c-0.835-2.529-0.98-5.257-0.418-7.869s1.809-5.003 3.596-6.898c0.056-0.043 0.102-0.099 0.135-0.164s0.053-0.136 0.057-0.209c0.004-0.073-0.007-0.147-0.033-0.215s-0.066-0.129-0.117-0.179c-0.051-0.050-0.112-0.087-0.178-0.109s-0.136-0.028-0.205-0.019c-0.069 0.010-0.134 0.036-0.192 0.076s-0.107 0.093-0.144 0.156c-1.911 2.028-3.242 4.588-3.84 7.384s-0.438 5.714 0.461 8.418c0.033 0.095 0.093 0.177 0.171 0.235s0.171 0.089 0.267 0.090z"></path>
<path fill="#fff" style="fill: var(--color1, #fff)" d="M34.957 31.27h-33.575c-0.106-0.014-0.204-0.068-0.275-0.153s-0.11-0.195-0.11-0.308c0-0.114 0.039-0.223 0.11-0.308s0.169-0.139 0.275-0.153h33.575c0.106 0.014 0.204 0.068 0.275 0.153s0.11 0.194 0.11 0.308c0 0.113-0.039 0.223-0.11 0.308s-0.169 0.139-0.275 0.153zM34.957 29.618h-33.575c-0.283 0.022-0.548 0.158-0.742 0.378s-0.301 0.511-0.301 0.812c0 0.301 0.107 0.591 0.301 0.812s0.458 0.356 0.742 0.379h33.575c0.283-0.022 0.548-0.158 0.742-0.379s0.301-0.511 0.301-0.812-0.107-0.591-0.301-0.812c-0.193-0.221-0.458-0.356-0.742-0.378z"></path>
<path fill="#fff" style="fill: var(--color1, #fff)" d="M31.935 21.823l-0.626 5.267c-0.038 0.287-0.172 0.549-0.378 0.739s-0.469 0.295-0.742 0.295h-3.041c-0.273-0-0.537-0.105-0.742-0.295s-0.34-0.453-0.378-0.739l-0.626-5.267h6.532zM25.315 27.184c0.059 0.463 0.274 0.888 0.605 1.197s0.756 0.48 1.197 0.482h3.041c0.441-0.001 0.867-0.171 1.198-0.48s0.546-0.735 0.604-1.198l0.757-6.090h-8.134l0.757 6.090h-0.025z"></path>
<path fill="#fff" style="fill: var(--color1, #fff)" d="M32.842 26.912c-0.050-0.009-0.098-0.025-0.144-0.046l-0.050 0.438c0 0.106-0.044 0.199-0.063 0.299l0.138 0.033c0.079 0.007 0.158 0.007 0.238 0 0.97 0 1.877-1.081 2.096-2.461 0.147-0.842-0.019-1.712-0.463-2.428-0.117-0.175-0.266-0.324-0.438-0.438s-0.364-0.19-0.563-0.225c-0.098-0.010-0.196-0.010-0.294 0l-0.094 0.75c0.054-0.006 0.109-0.006 0.163 0h0.125c0.222 0.051 0.417 0.191 0.544 0.391 0.334 0.56 0.455 1.233 0.338 1.884-0.156 1.061-0.888 1.944-1.533 1.831v-0.027z"></path>
<path fill="#fff" style="fill: var(--color1, #fff)" d="M28.725 14.248c-0.057-0.028-0.118-0.043-0.18-0.045s-0.124 0.009-0.183 0.032c-0.058 0.023-0.111 0.059-0.157 0.104s-0.081 0.1-0.106 0.161c-0.745 1.785-0.363 2.607 0 3.317 0.196 0.346 0.299 0.741 0.299 1.144s-0.103 0.799-0.299 1.144c-0.026 0.061-0.040 0.127-0.041 0.193s0.010 0.133 0.034 0.195c0.023 0.062 0.058 0.118 0.102 0.165s0.097 0.085 0.155 0.11c0.058 0.025 0.119 0.039 0.181 0.040 0.093 0.001 0.185-0.027 0.263-0.082s0.139-0.132 0.175-0.223c0.245-0.479 0.369-1.017 0.362-1.562s-0.147-1.079-0.406-1.55c-0.294-0.63-0.526-1.134 0.038-2.488 0.026-0.060 0.040-0.125 0.043-0.191s-0.008-0.132-0.030-0.194c-0.022-0.062-0.056-0.118-0.098-0.166s-0.095-0.086-0.152-0.113v0.007z"></path>
<path fill="#fff" style="fill: var(--color1, #fff)" d="M26.729 14.248c-0.057-0.028-0.118-0.043-0.18-0.045s-0.124 0.009-0.183 0.032-0.111 0.059-0.157 0.104c-0.045 0.046-0.081 0.1-0.106 0.161-0.745 1.785-0.363 2.607 0 3.317 0.196 0.346 0.299 0.741 0.299 1.144s-0.103 0.799-0.299 1.144c-0.026 0.061-0.039 0.127-0.041 0.193s0.010 0.133 0.034 0.195c0.023 0.062 0.058 0.118 0.102 0.165s0.097 0.085 0.155 0.11c0.058 0.025 0.119 0.039 0.181 0.040 0.095 0.003 0.189-0.026 0.269-0.081s0.141-0.136 0.176-0.23c0.247-0.478 0.373-1.016 0.367-1.561s-0.146-1.079-0.404-1.55c-0.294-0.63-0.526-1.134 0.038-2.488 0.026-0.060 0.040-0.125 0.043-0.191s-0.008-0.132-0.030-0.194c-0.022-0.062-0.056-0.118-0.098-0.166s-0.095-0.086-0.152-0.113l-0.012 0.013z"></path>
<path fill="#fff" style="fill: var(--color1, #fff)" d="M30.108 17.843c0.194 0.346 0.296 0.742 0.296 1.144s-0.102 0.798-0.296 1.144c-0.029 0.061-0.045 0.127-0.049 0.195s0.006 0.136 0.029 0.2c0.022 0.064 0.057 0.122 0.101 0.171s0.098 0.088 0.157 0.114c0.059 0.026 0.123 0.040 0.187 0.039s0.128-0.015 0.186-0.043 0.111-0.068 0.155-0.118c0.043-0.050 0.077-0.109 0.098-0.173 0.247-0.479 0.372-1.017 0.365-1.562s-0.148-1.079-0.408-1.55c-0.294-0.63-0.526-1.134 0.044-2.488 0.050-0.122 0.053-0.261 0.007-0.385s-0.136-0.224-0.251-0.278c-0.057-0.028-0.118-0.043-0.18-0.045s-0.124 0.009-0.183 0.032c-0.058 0.023-0.111 0.059-0.157 0.104s-0.081 0.1-0.106 0.161c-0.738 1.785-0.357 2.607 0 3.317l0.006 0.020z"></path>
<path fill="#fff" style="fill: var(--color1, #fff)" d="M17.8 28.278v0.61h0.695v-0.544l5.006-1.373c0.114-0.034 0.213-0.111 0.278-0.216s0.093-0.231 0.078-0.356c-0.015-0.125-0.072-0.239-0.16-0.323s-0.202-0.131-0.32-0.134h-19.397c-0.118 0.004-0.231 0.052-0.318 0.137s-0.143 0.199-0.157 0.323 0.014 0.25 0.079 0.354c0.065 0.104 0.164 0.18 0.277 0.214l4.956 1.36v0.557h0.695v-0.663c-0.001-0.13-0.042-0.256-0.116-0.359s-0.179-0.177-0.297-0.212l-3.56-0.995h16.268l-3.573 0.975c-0.137 0.039-0.257 0.126-0.341 0.246s-0.127 0.268-0.122 0.417l0.031-0.020z"></path>
<path fill="#fff" style="fill: var(--color1, #fff)" d="M16.881 24.696l1.183 0.517h1.808l-2.728-1.194c-2.233-0.959-4.731-0.959-6.964 0l-2.847 1.221h1.84l1.251-0.544c2.067-0.885 4.378-0.885 6.445 0h0.013z"></path>
</symbol>
<symbol id="icon-advantages_svg3" viewBox="0 0 38 32">
<path fill="#fff" style="fill: var(--color1, #fff)" d="M32.216 31.337h-26.084v-27.29c0.001-0.892 0.375-1.747 1.039-2.378s1.564-0.986 2.503-0.987h0.076c0.939 0.001 1.839 0.356 2.503 0.987s1.038 1.486 1.039 2.378v2.552h11.772v-2.552c0.001-0.892 0.375-1.747 1.039-2.378s1.564-0.986 2.503-0.987h0.076c0.939 0.001 1.839 0.356 2.503 0.987s1.038 1.486 1.039 2.378v27.284l-0.011 0.005zM28.674 0.005h-0.076c-1.129 0.001-2.211 0.428-3.010 1.185s-1.249 1.785-1.252 2.857v1.869h-10.355v-1.869c0-1.074-0.449-2.103-1.248-2.862s-1.883-1.186-3.014-1.186h-0.076c-1.126 0.007-2.204 0.436-2.998 1.194s-1.241 1.784-1.242 2.853v27.952h27.534v-27.952c0-1.074-0.449-2.103-1.248-2.862s-1.883-1.186-3.014-1.186v0.005z"></path>
<path fill="#fff" style="fill: var(--color1, #fff)" d="M7.833 26.824h5.526v2.324h-5.526v-2.324zM7.113 29.831h6.965v-3.696h-6.965v3.696z"></path>
<path fill="#fff" style="fill: var(--color1, #fff)" d="M25.055 26.824h5.526v2.324h-5.526v-2.324zM24.336 29.831h6.965v-3.696h-6.965v3.696z"></path>
<path fill="#fff" style="fill: var(--color1, #fff)" d="M10.896 6.636h-2.403v-2.811c0.021-0.289 0.156-0.561 0.379-0.759s0.517-0.308 0.823-0.308c0.305 0 0.599 0.11 0.823 0.308s0.359 0.469 0.379 0.759v2.811zM11.615 3.825c-0.061-0.44-0.288-0.843-0.639-1.136s-0.802-0.454-1.269-0.454c-0.467 0-0.918 0.161-1.269 0.454s-0.578 0.696-0.639 1.136v3.494h3.815v-3.494z"></path>
<path fill="#fff" style="fill: var(--color1, #fff)" d="M29.824 6.636h-2.404v-2.811c0.021-0.289 0.156-0.561 0.379-0.759s0.517-0.308 0.823-0.308c0.305 0 0.599 0.11 0.823 0.308s0.359 0.469 0.379 0.759v2.811zM30.543 3.825c-0.061-0.44-0.288-0.843-0.639-1.136s-0.802-0.454-1.269-0.454c-0.467 0-0.918 0.161-1.269 0.454s-0.578 0.696-0.639 1.136v3.494h3.815v-3.494z"></path>
<path fill="#fff" style="fill: var(--color1, #fff)" d="M10.896 14.841h-2.403v-2.811c0.021-0.289 0.156-0.561 0.379-0.759s0.517-0.308 0.823-0.308c0.305 0 0.599 0.11 0.823 0.308s0.359 0.469 0.379 0.759v2.811zM11.615 12.030c-0.061-0.44-0.288-0.843-0.639-1.136s-0.802-0.454-1.269-0.454c-0.467 0-0.918 0.161-1.269 0.454s-0.578 0.696-0.639 1.136v3.494h3.815v-3.494z"></path>
<path fill="#fff" style="fill: var(--color1, #fff)" d="M17.207 14.84h-2.409v-2.811c0-0.303 0.127-0.594 0.353-0.809s0.532-0.335 0.852-0.335c0.319 0 0.626 0.121 0.852 0.335s0.353 0.505 0.353 0.809v2.811zM17.926 12.030c0-0.485-0.203-0.949-0.564-1.292s-0.85-0.535-1.36-0.535-1 0.193-1.36 0.535c-0.361 0.343-0.563 0.807-0.563 1.292v3.494h3.848v-3.494z"></path>
<path fill="#fff" style="fill: var(--color1, #fff)" d="M23.518 14.84h-2.409v-2.811c0-0.303 0.127-0.594 0.353-0.809s0.532-0.335 0.852-0.335c0.319 0 0.626 0.121 0.852 0.335s0.353 0.505 0.353 0.809v2.811zM24.237 12.030c0-0.485-0.203-0.949-0.564-1.292s-0.85-0.535-1.36-0.535c-0.51 0-1 0.193-1.36 0.535s-0.563 0.807-0.563 1.292v3.494h3.848v-3.494z"></path>
<path fill="#fff" style="fill: var(--color1, #fff)" d="M29.824 14.841h-2.404v-2.811c0.021-0.289 0.156-0.561 0.379-0.759s0.517-0.308 0.823-0.308c0.305 0 0.599 0.11 0.823 0.308s0.359 0.469 0.379 0.759v2.811zM30.543 12.030c-0.061-0.44-0.288-0.843-0.639-1.136s-0.802-0.454-1.269-0.454c-0.467 0-0.918 0.161-1.269 0.454s-0.578 0.696-0.639 1.136v3.494h3.815v-3.494z"></path>
<path fill="#fff" style="fill: var(--color1, #fff)" d="M8.492 19.059c0.021-0.289 0.156-0.561 0.379-0.759s0.517-0.308 0.823-0.308c0.305 0 0.599 0.11 0.823 0.308s0.359 0.469 0.379 0.759v2.805h-2.403v-2.805zM7.767 22.538h3.815v-3.478c-0.061-0.44-0.288-0.843-0.639-1.136s-0.802-0.454-1.269-0.454-0.918 0.161-1.269 0.454c-0.351 0.293-0.578 0.696-0.639 1.136v3.478z"></path>
<path fill="#fff" style="fill: var(--color1, #fff)" d="M14.798 19.059c0-0.303 0.127-0.594 0.353-0.809s0.532-0.335 0.852-0.335c0.319 0 0.626 0.12 0.852 0.335s0.353 0.506 0.353 0.809v2.805h-2.409v-2.805zM14.079 22.548h3.848v-3.489c0-0.485-0.203-0.949-0.564-1.292s-0.85-0.535-1.36-0.535-1 0.192-1.36 0.535c-0.361 0.343-0.563 0.808-0.563 1.292v3.489z"></path>
<path fill="#fff" style="fill: var(--color1, #fff)" d="M21.109 19.059c0-0.303 0.127-0.594 0.353-0.809s0.532-0.335 0.852-0.335c0.319 0 0.626 0.12 0.852 0.335s0.353 0.506 0.353 0.809v2.805h-2.409v-2.805zM20.39 22.548h3.848v-3.489c0-0.485-0.203-0.949-0.564-1.292s-0.85-0.535-1.36-0.535c-0.51 0-1 0.192-1.36 0.535s-0.563 0.808-0.563 1.292v3.489z"></path>
<path fill="#fff" style="fill: var(--color1, #fff)" d="M27.42 19.059c0.021-0.289 0.156-0.561 0.379-0.759s0.517-0.308 0.823-0.308c0.305 0 0.599 0.11 0.823 0.308s0.359 0.469 0.379 0.759v2.805h-2.404v-2.805zM26.701 22.548h3.815v-3.489c-0.061-0.44-0.288-0.843-0.639-1.136s-0.802-0.454-1.269-0.454-0.918 0.161-1.269 0.454c-0.351 0.293-0.578 0.696-0.639 1.136v3.489z"></path>
<path fill="#fff" style="fill: var(--color1, #fff)" d="M15.795 30.654h0.719v-4.074h2.42v4.074h0.719v-4.074h2.42v4.074h0.719v-4.757h-6.998v4.757z"></path>
<path fill="#fff" style="fill: var(--color1, #fff)" d="M6.841 9.1h24.656v-0.683h-24.656v0.683z"></path>
<path fill="#fff" style="fill: var(--color1, #fff)" d="M23.622 3.929c0.007-0.229 0.031-0.457 0.071-0.683h-9.047c0.040 0.226 0.064 0.454 0.071 0.683h8.905z"></path>
<path fill="#fff" style="fill: var(--color1, #fff)" d="M6.841 25.043h24.656v-0.683h-24.656v0.683z"></path>
</symbol>
        <symbol id="close-black" viewBox="0 0 32 32">
            <path
                d="m26.667 7.303-1.97-1.97-7.808 7.808-7.808-7.808-1.97 1.97 7.808 7.808-7.808 7.808 1.97 1.97 7.808-7.808 7.808 7.808 1.97-1.97-7.808-7.808 7.808-7.808z" />
        </symbol>
</defs>
</svg>
